<svg xmlns="http://www.w3.org/2000/svg" xmlns:xlink="http://www.w3.org/1999/xlink" width="1080" zoomAndPan="magnify" viewBox="0 0 810 1012.49997" height="1350" preserveAspectRatio="xMidYMid meet" version="1.0"><defs><clipPath id="fe67613460"><path d="M 156.648438 258.527344 L 392 258.527344 L 392 494 L 156.648438 494 Z M 156.648438 258.527344 " clip-rule="nonzero"/></clipPath><clipPath id="1a214a3232"><path d="M 186.636719 258.527344 L 361.679688 258.527344 C 369.632812 258.527344 377.257812 261.683594 382.882812 267.308594 C 388.503906 272.929688 391.664062 280.558594 391.664062 288.511719 L 391.664062 463.152344 C 391.664062 471.105469 388.503906 478.734375 382.882812 484.355469 C 377.257812 489.980469 369.632812 493.140625 361.679688 493.140625 L 186.636719 493.140625 C 178.683594 493.140625 171.054688 489.980469 165.433594 484.355469 C 159.808594 478.734375 156.648438 471.105469 156.648438 463.152344 L 156.648438 288.511719 C 156.648438 280.558594 159.808594 272.929688 165.433594 267.308594 C 171.054688 261.683594 178.683594 258.527344 186.636719 258.527344 " clip-rule="nonzero"/></clipPath><clipPath id="28cebfc888"><path d="M 156.648438 258.527344 L 392.035156 258.527344 L 392.035156 493.160156 L 156.648438 493.160156 Z M 156.648438 258.527344 " clip-rule="nonzero"/></clipPath><clipPath id="cf14832b43"><path d="M 186.683594 258.527344 L 362 258.527344 C 369.964844 258.527344 377.605469 261.6875 383.238281 267.308594 C 388.871094 272.933594 392.035156 280.5625 392.035156 288.515625 L 392.035156 463.171875 C 392.035156 471.125 388.871094 478.75 383.238281 484.375 C 377.605469 490 369.964844 493.160156 362 493.160156 L 186.683594 493.160156 C 178.71875 493.160156 171.078125 490 165.445312 484.375 C 159.8125 478.75 156.648438 471.125 156.648438 463.171875 L 156.648438 288.515625 C 156.648438 280.5625 159.8125 272.933594 165.445312 267.308594 C 171.078125 261.6875 178.71875 258.527344 186.683594 258.527344 " clip-rule="nonzero"/></clipPath><clipPath id="3f3e52d210"><path d="M 156.648438 518.859375 L 392 518.859375 L 392 754 L 156.648438 754 Z M 156.648438 518.859375 " clip-rule="nonzero"/></clipPath><clipPath id="650592fee6"><path d="M 186.636719 518.859375 L 361.679688 518.859375 C 369.632812 518.859375 377.257812 522.019531 382.882812 527.644531 C 388.503906 533.265625 391.664062 540.894531 391.664062 548.847656 L 391.664062 723.488281 C 391.664062 731.441406 388.503906 739.070312 382.882812 744.691406 C 377.257812 750.316406 369.632812 753.476562 361.679688 753.476562 L 186.636719 753.476562 C 178.683594 753.476562 171.054688 750.316406 165.433594 744.691406 C 159.808594 739.070312 156.648438 731.441406 156.648438 723.488281 L 156.648438 548.847656 C 156.648438 540.894531 159.808594 533.265625 165.433594 527.644531 C 171.054688 522.019531 178.683594 518.859375 186.636719 518.859375 " clip-rule="nonzero"/></clipPath><clipPath id="8e9cf2467c"><path d="M 156.648438 518.863281 L 392.035156 518.863281 L 392.035156 753.496094 L 156.648438 753.496094 Z M 156.648438 518.863281 " clip-rule="nonzero"/></clipPath><clipPath id="f9d1019c36"><path d="M 186.683594 518.863281 L 362 518.863281 C 369.964844 518.863281 377.605469 522.019531 383.238281 527.644531 C 388.871094 533.269531 392.035156 540.894531 392.035156 548.847656 L 392.035156 723.507812 C 392.035156 731.460938 388.871094 739.085938 383.238281 744.710938 C 377.605469 750.335938 369.964844 753.492188 362 753.492188 L 186.683594 753.492188 C 178.71875 753.492188 171.078125 750.335938 165.445312 744.710938 C 159.8125 739.085938 156.648438 731.460938 156.648438 723.507812 L 156.648438 548.847656 C 156.648438 540.894531 159.8125 533.269531 165.445312 527.644531 C 171.078125 522.019531 178.71875 518.863281 186.683594 518.863281 " clip-rule="nonzero"/></clipPath><clipPath id="3ddf820c73"><path d="M 418.335938 258.527344 L 654 258.527344 L 654 494 L 418.335938 494 Z M 418.335938 258.527344 " clip-rule="nonzero"/></clipPath><clipPath id="e7ed4f9de7"><path d="M 448.320312 258.527344 L 623.363281 258.527344 C 631.316406 258.527344 638.945312 261.683594 644.566406 267.308594 C 650.191406 272.929688 653.351562 280.558594 653.351562 288.511719 L 653.351562 463.152344 C 653.351562 471.105469 650.191406 478.734375 644.566406 484.355469 C 638.945312 489.980469 631.316406 493.140625 623.363281 493.140625 L 448.320312 493.140625 C 440.367188 493.140625 432.742188 489.980469 427.117188 484.355469 C 421.496094 478.734375 418.335938 471.105469 418.335938 463.152344 L 418.335938 288.511719 C 418.335938 280.558594 421.496094 272.929688 427.117188 267.308594 C 432.742188 261.683594 440.367188 258.527344 448.320312 258.527344 " clip-rule="nonzero"/></clipPath><clipPath id="20ba645087"><path d="M 418.335938 258.527344 L 653.71875 258.527344 L 653.71875 493.160156 L 418.335938 493.160156 Z M 418.335938 258.527344 " clip-rule="nonzero"/></clipPath><clipPath id="a7fd089c75"><path d="M 448.367188 258.527344 L 623.6875 258.527344 C 631.652344 258.527344 639.289062 261.6875 644.921875 267.308594 C 650.554688 272.933594 653.71875 280.5625 653.71875 288.515625 L 653.71875 463.171875 C 653.71875 471.125 650.554688 478.75 644.921875 484.375 C 639.289062 490 631.652344 493.160156 623.6875 493.160156 L 448.367188 493.160156 C 440.402344 493.160156 432.765625 490 427.132812 484.375 C 421.5 478.75 418.335938 471.125 418.335938 463.171875 L 418.335938 288.515625 C 418.335938 280.5625 421.5 272.933594 427.132812 267.308594 C 432.765625 261.6875 440.402344 258.527344 448.367188 258.527344 " clip-rule="nonzero"/></clipPath></defs><g clip-path="url(#fe67613460)"><g clip-path="url(#1a214a3232)"><path fill="#0398dc" d="M 156.648438 258.527344 L 396.582031 258.527344 L 396.582031 498.457031 L 156.648438 498.457031 Z M 156.648438 258.527344 " fill-opacity="1" fill-rule="nonzero"/></g></g><g clip-path="url(#28cebfc888)"><g clip-path="url(#cf14832b43)"><path stroke-linecap="butt" transform="matrix(0.750825, 0, 0, 0.749705, 156.649693, 258.526688)" fill="none" stroke-linejoin="miter" d="M 40.001181 0.000874066 L 273.499432 0.000874066 C 284.10755 0.000874066 294.283851 4.216076 301.786012 11.71382 C 309.288173 19.216774 313.502285 29.392656 313.502285 40.001 L 313.502285 272.967735 C 313.502285 283.576079 309.288173 293.74675 301.786012 301.249705 C 294.283851 308.752659 284.10755 312.96786 273.499432 312.96786 L 40.001181 312.96786 C 29.393064 312.96786 19.216762 308.752659 11.714602 301.249705 C 4.212441 293.74675 -0.00167158 283.576079 -0.00167158 272.967735 L -0.00167158 40.001 C -0.00167158 29.392656 4.212441 19.216774 11.714602 11.71382 C 19.216762 4.216076 29.393064 0.000874066 40.001181 0.000874066 " stroke="#0398dc" stroke-width="10" stroke-opacity="1" stroke-miterlimit="4"/></g></g><g clip-path="url(#3f3e52d210)"><g clip-path="url(#650592fee6)"><path fill="#ec3237" d="M 156.648438 518.859375 L 396.582031 518.859375 L 396.582031 758.792969 L 156.648438 758.792969 Z M 156.648438 518.859375 " fill-opacity="1" fill-rule="nonzero"/></g></g><g clip-path="url(#8e9cf2467c)"><g clip-path="url(#f9d1019c36)"><path stroke-linecap="butt" transform="matrix(0.750825, 0, 0, 0.749705, 156.649693, 518.861911)" fill="none" stroke-linejoin="miter" d="M 40.001181 0.00182787 L 273.499432 0.00182787 C 284.10755 0.00182787 294.283851 4.211819 301.786012 11.714773 C 309.288173 19.217728 313.502285 29.388399 313.502285 39.996743 L 313.502285 272.968688 C 313.502285 283.577032 309.288173 293.747704 301.786012 301.250658 C 294.283851 308.753613 284.10755 312.963604 273.499432 312.963604 L 40.001181 312.963604 C 29.393064 312.963604 19.216762 308.753613 11.714602 301.250658 C 4.212441 293.747704 -0.00167158 283.577032 -0.00167158 272.968688 L -0.00167158 39.996743 C -0.00167158 29.388399 4.212441 19.217728 11.714602 11.714773 C 19.216762 4.211819 29.393064 0.00182787 40.001181 0.00182787 " stroke="#ec3237" stroke-width="10" stroke-opacity="1" stroke-miterlimit="4"/></g></g><g clip-path="url(#3ddf820c73)"><g clip-path="url(#e7ed4f9de7)"><path fill="#a9cf46" d="M 418.335938 258.527344 L 658.269531 258.527344 L 658.269531 498.457031 L 418.335938 498.457031 Z M 418.335938 258.527344 " fill-opacity="1" fill-rule="nonzero"/></g></g><g clip-path="url(#20ba645087)"><g clip-path="url(#a7fd089c75)"><path stroke-linecap="butt" transform="matrix(0.750825, 0, 0, 0.749705, 418.335549, 258.526688)" fill="none" stroke-linejoin="miter" d="M 39.998168 0.000874066 L 273.501621 0.000874066 C 284.109739 0.000874066 294.280838 4.216076 301.782999 11.71382 C 309.285159 19.216774 313.499272 29.392656 313.499272 40.001 L 313.499272 272.967735 C 313.499272 283.576079 309.285159 293.74675 301.782999 301.249705 C 294.280838 308.752659 284.109739 312.96786 273.501621 312.96786 L 39.998168 312.96786 C 29.390051 312.96786 19.218952 308.752659 11.716791 301.249705 C 4.21463 293.74675 0.000517807 283.576079 0.000517807 272.967735 L 0.000517807 40.001 C 0.000517807 29.392656 4.21463 19.216774 11.716791 11.71382 C 19.218952 4.216076 29.390051 0.000874066 39.998168 0.000874066 " stroke="#a9cf46" stroke-width="10" stroke-opacity="1" stroke-miterlimit="4"/></g></g></svg>