<svg xmlns="http://www.w3.org/2000/svg" xmlns:xlink="http://www.w3.org/1999/xlink" width="500" zoomAndPan="magnify" viewBox="0 0 375 374.999991" height="500" preserveAspectRatio="xMidYMid meet" version="1.0"><defs><g/><clipPath id="7deec7f026"><path d="M 91.394531 107.148438 L 144.691406 107.148438 L 144.691406 160.441406 L 91.394531 160.441406 Z M 91.394531 107.148438 " clip-rule="nonzero"/></clipPath><clipPath id="ca6a4aee97"><path d="M 141.125 160.335938 L 94.855469 160.335938 C 92.949219 160.335938 91.394531 158.785156 91.394531 156.878906 L 91.394531 110.609375 C 91.394531 108.703125 92.949219 107.148438 94.855469 107.148438 L 141.125 107.148438 C 143.03125 107.148438 144.582031 108.703125 144.582031 110.609375 L 144.582031 156.878906 C 144.582031 158.785156 143.03125 160.335938 141.125 160.335938 " clip-rule="nonzero"/></clipPath><clipPath id="ccbff4a64e"><path d="M 25.921875 107.523438 L 79.21875 107.523438 L 79.21875 160.816406 L 25.921875 160.816406 Z M 25.921875 107.523438 " clip-rule="nonzero"/></clipPath><clipPath id="5d12a1d07c"><path d="M 75.652344 160.710938 L 29.382812 160.710938 C 27.476562 160.710938 25.921875 159.160156 25.921875 157.253906 L 25.921875 110.984375 C 25.921875 109.078125 27.476562 107.523438 29.382812 107.523438 L 75.652344 107.523438 C 77.558594 107.523438 79.113281 109.078125 79.113281 110.984375 L 79.113281 157.253906 C 79.113281 159.160156 77.558594 160.710938 75.652344 160.710938 " clip-rule="nonzero"/></clipPath><clipPath id="fdb30b2afd"><path d="M 25.171875 175.398438 L 78.46875 175.398438 L 78.46875 228.691406 L 25.171875 228.691406 Z M 25.171875 175.398438 " clip-rule="nonzero"/></clipPath><clipPath id="c2c9da7a11"><path d="M 74.902344 228.585938 L 28.632812 228.585938 C 26.726562 228.585938 25.171875 227.035156 25.171875 225.128906 L 25.171875 178.855469 C 25.171875 176.949219 26.726562 175.398438 28.632812 175.398438 L 74.902344 175.398438 C 76.808594 175.398438 78.363281 176.949219 78.363281 178.855469 L 78.363281 225.128906 C 78.363281 227.035156 76.808594 228.585938 74.902344 228.585938 " clip-rule="nonzero"/></clipPath></defs><g fill="#1198d9" fill-opacity="1"><g transform="translate(85.517319, 227.175081)"><g><path d="M 83.046875 0 L 60.3125 0 L 48.09375 -14.53125 L 22 -14.53125 L 22 0 L 5 0 L 5 -28.0625 L 52.765625 -28.0625 C 55.390625 -28.0625 57.601562 -28.609375 59.40625 -29.703125 C 61.21875 -30.796875 62.125 -32.300781 62.125 -34.21875 C 62.125 -36.351562 61.300781 -37.953125 59.65625 -39.015625 C 58.019531 -40.085938 55.722656 -40.625 52.765625 -40.625 L 5 -40.625 L 16.078125 -54.90625 L 51.375 -54.90625 C 54.488281 -54.90625 57.710938 -54.613281 61.046875 -54.03125 C 64.390625 -53.457031 67.425781 -52.429688 70.15625 -50.953125 C 72.894531 -49.484375 75.148438 -47.488281 76.921875 -44.96875 C 78.703125 -42.457031 79.59375 -39.226562 79.59375 -35.28125 C 79.59375 -33.15625 79.265625 -31.132812 78.609375 -29.21875 C 77.953125 -27.300781 77.007812 -25.578125 75.78125 -24.046875 C 74.550781 -22.515625 73.046875 -21.210938 71.265625 -20.140625 C 69.492188 -19.078125 67.484375 -18.328125 65.234375 -17.890625 C 66.171875 -17.179688 67.210938 -16.28125 68.359375 -15.1875 C 69.503906 -14.09375 71.035156 -12.585938 72.953125 -10.671875 Z M 83.046875 0 "/></g></g></g><g fill="#1198d9" fill-opacity="1"><g transform="translate(169.458213, 227.175081)"><g><path d="M 71.796875 0 L 54.90625 0 L 54.90625 -21.171875 L 22.234375 -21.171875 L 22.234375 0 L 5.171875 0 L 5.171875 -54.90625 L 22.234375 -54.90625 L 22.234375 -35.453125 L 54.90625 -35.453125 L 54.90625 -54.90625 L 71.796875 -54.90625 Z M 71.796875 0 "/></g></g></g><g fill="#1198d9" fill-opacity="1"><g transform="translate(246.506608, 227.175081)"><g><path d="M 43.078125 -34.46875 C 44.285156 -32.332031 45.335938 -30.457031 46.234375 -28.84375 C 47.140625 -27.226562 47.929688 -25.789062 48.609375 -24.53125 C 49.296875 -23.28125 49.898438 -22.132812 50.421875 -21.09375 C 50.941406 -20.050781 51.453125 -19.035156 51.953125 -18.046875 C 52.390625 -19.035156 52.863281 -20.035156 53.375 -21.046875 C 53.894531 -22.054688 54.5 -23.203125 55.1875 -24.484375 C 55.875 -25.773438 56.664062 -27.210938 57.5625 -28.796875 C 58.46875 -30.390625 59.519531 -32.253906 60.71875 -34.390625 L 69.5 -49.96875 C 70.488281 -51.726562 71.734375 -53.140625 73.234375 -54.203125 C 74.742188 -55.265625 76.617188 -55.796875 78.859375 -55.796875 C 80.992188 -55.796875 82.921875 -55.179688 84.640625 -53.953125 C 86.367188 -52.722656 87.613281 -50.820312 88.375 -48.25 L 102.25 0 L 85.34375 0 L 80.171875 -19.125 C 79.296875 -22.238281 78.554688 -24.972656 77.953125 -27.328125 C 77.359375 -29.679688 76.84375 -31.976562 76.40625 -34.21875 C 75.46875 -32.300781 74.425781 -30.179688 73.28125 -27.859375 C 72.132812 -25.535156 70.628906 -22.59375 68.765625 -19.03125 L 61.375 -5.25 C 60.664062 -3.882812 59.941406 -2.804688 59.203125 -2.015625 C 58.460938 -1.222656 57.707031 -0.601562 56.9375 -0.15625 C 56.175781 0.28125 55.359375 0.566406 54.484375 0.703125 C 53.609375 0.835938 52.65625 0.90625 51.625 0.90625 C 50.582031 0.90625 49.625 0.835938 48.75 0.703125 C 47.875 0.566406 47.050781 0.28125 46.28125 -0.15625 C 45.519531 -0.601562 44.769531 -1.222656 44.03125 -2.015625 C 43.289062 -2.804688 42.566406 -3.882812 41.859375 -5.25 L 34.46875 -19.125 C 33.476562 -20.976562 32.597656 -22.644531 31.828125 -24.125 C 31.066406 -25.601562 30.367188 -26.929688 29.734375 -28.109375 C 29.109375 -29.285156 28.5625 -30.363281 28.09375 -31.34375 C 27.632812 -32.332031 27.1875 -33.289062 26.75 -34.21875 C 26.3125 -32.03125 25.789062 -29.742188 25.1875 -27.359375 C 24.59375 -24.984375 23.882812 -22.238281 23.0625 -19.125 L 17.890625 0 L 1.234375 0 L 15.421875 -48.25 C 16.191406 -50.820312 17.453125 -52.722656 19.203125 -53.953125 C 20.953125 -55.179688 22.894531 -55.796875 25.03125 -55.796875 C 27.21875 -55.796875 29.0625 -55.273438 30.5625 -54.234375 C 32.070312 -53.203125 33.316406 -51.78125 34.296875 -49.96875 Z M 43.078125 -34.46875 "/></g></g></g><g clip-path="url(#7deec7f026)"><g clip-path="url(#ca6a4aee97)"><path fill="#aacf49" d="M 91.394531 107.148438 L 144.691406 107.148438 L 144.691406 160.441406 L 91.394531 160.441406 Z M 91.394531 107.148438 " fill-opacity="1" fill-rule="nonzero"/></g></g><g clip-path="url(#ccbff4a64e)"><g clip-path="url(#5d12a1d07c)"><path fill="#1198d9" d="M 25.921875 107.523438 L 79.21875 107.523438 L 79.21875 160.816406 L 25.921875 160.816406 Z M 25.921875 107.523438 " fill-opacity="1" fill-rule="nonzero"/></g></g><g clip-path="url(#fdb30b2afd)"><g clip-path="url(#c2c9da7a11)"><path fill="#ec3237" d="M 25.171875 175.398438 L 78.46875 175.398438 L 78.46875 228.691406 L 25.171875 228.691406 Z M 25.171875 175.398438 " fill-opacity="1" fill-rule="nonzero"/></g></g><g fill="#ea0909" fill-opacity="1"><g transform="translate(194.770245, 257.986157)"><g><path d="M 0.484375 -18.765625 L 17.5 -18.765625 L 17.5 -15.953125 L 10.4375 -15.953125 L 10.4375 0 L 7.546875 0 L 7.546875 -15.953125 L 0.484375 -15.953125 Z M 0.484375 -18.765625 "/></g></g></g><g fill="#ea0909" fill-opacity="1"><g transform="translate(212.756883, 257.986157)"><g><path d="M 14.921875 -2 C 14.046875 -1.1875 13.066406 -0.597656 11.984375 -0.234375 C 10.910156 0.117188 9.828125 0.296875 8.734375 0.296875 C 7.617188 0.296875 6.578125 0.125 5.609375 -0.21875 C 4.640625 -0.5625 3.800781 -1.050781 3.09375 -1.6875 C 2.382812 -2.320312 1.828125 -3.085938 1.421875 -3.984375 C 1.015625 -4.890625 0.8125 -5.90625 0.8125 -7.03125 C 0.8125 -8.144531 1.007812 -9.15625 1.40625 -10.0625 C 1.800781 -10.976562 2.347656 -11.765625 3.046875 -12.421875 C 3.742188 -13.078125 4.570312 -13.582031 5.53125 -13.9375 C 6.488281 -14.289062 7.535156 -14.46875 8.671875 -14.46875 C 9.484375 -14.46875 10.28125 -14.359375 11.0625 -14.140625 C 11.851562 -13.929688 12.554688 -13.625 13.171875 -13.21875 C 13.785156 -12.8125 14.28125 -12.3125 14.65625 -11.71875 C 15.03125 -11.125 15.21875 -10.453125 15.21875 -9.703125 C 15.21875 -8.929688 15.078125 -8.28125 14.796875 -7.75 C 14.515625 -7.226562 14.117188 -6.8125 13.609375 -6.5 C 13.109375 -6.1875 12.507812 -5.960938 11.8125 -5.828125 C 11.113281 -5.703125 10.347656 -5.640625 9.515625 -5.640625 L 3.875 -5.640625 C 4.164062 -4.609375 4.753906 -3.800781 5.640625 -3.21875 C 6.523438 -2.644531 7.585938 -2.359375 8.828125 -2.359375 C 9.472656 -2.359375 10.175781 -2.457031 10.9375 -2.65625 C 11.707031 -2.863281 12.398438 -3.253906 13.015625 -3.828125 Z M 9.515625 -8.1875 C 9.898438 -8.1875 10.269531 -8.203125 10.625 -8.234375 C 10.976562 -8.265625 11.28125 -8.328125 11.53125 -8.421875 C 11.789062 -8.523438 12 -8.675781 12.15625 -8.875 C 12.320312 -9.082031 12.40625 -9.359375 12.40625 -9.703125 C 12.40625 -10.066406 12.296875 -10.382812 12.078125 -10.65625 C 11.867188 -10.925781 11.59375 -11.144531 11.25 -11.3125 C 10.90625 -11.488281 10.507812 -11.617188 10.0625 -11.703125 C 9.625 -11.785156 9.171875 -11.828125 8.703125 -11.828125 C 7.453125 -11.828125 6.375 -11.523438 5.46875 -10.921875 C 4.570312 -10.328125 4.003906 -9.414062 3.765625 -8.1875 Z M 9.515625 -8.1875 "/></g></g></g><g fill="#ea0909" fill-opacity="1"><g transform="translate(229.099588, 257.986157)"><g><path d="M 8.671875 -2.359375 C 10.453125 -2.359375 12 -2.976562 13.3125 -4.21875 L 15.078125 -2.28125 C 14.117188 -1.363281 13.128906 -0.703125 12.109375 -0.296875 C 11.085938 0.0976562 9.941406 0.296875 8.671875 0.296875 C 7.535156 0.296875 6.488281 0.117188 5.53125 -0.234375 C 4.570312 -0.597656 3.742188 -1.101562 3.046875 -1.75 C 2.347656 -2.40625 1.800781 -3.1875 1.40625 -4.09375 C 1.007812 -5 0.8125 -6 0.8125 -7.09375 C 0.8125 -8.1875 1.007812 -9.179688 1.40625 -10.078125 C 1.800781 -10.984375 2.347656 -11.765625 3.046875 -12.421875 C 3.742188 -13.078125 4.570312 -13.582031 5.53125 -13.9375 C 6.488281 -14.289062 7.535156 -14.46875 8.671875 -14.46875 C 9.898438 -14.46875 11.003906 -14.300781 11.984375 -13.96875 C 12.972656 -13.632812 13.910156 -13.101562 14.796875 -12.375 L 13.0625 -10.28125 C 12.375 -10.820312 11.695312 -11.210938 11.03125 -11.453125 C 10.363281 -11.703125 9.578125 -11.828125 8.671875 -11.828125 C 7.960938 -11.828125 7.300781 -11.71875 6.6875 -11.5 C 6.070312 -11.289062 5.539062 -10.988281 5.09375 -10.59375 C 4.644531 -10.195312 4.289062 -9.703125 4.03125 -9.109375 C 3.769531 -8.515625 3.640625 -7.84375 3.640625 -7.09375 C 3.640625 -6.34375 3.769531 -5.671875 4.03125 -5.078125 C 4.289062 -4.484375 4.644531 -3.984375 5.09375 -3.578125 C 5.539062 -3.171875 6.070312 -2.863281 6.6875 -2.65625 C 7.300781 -2.457031 7.960938 -2.359375 8.671875 -2.359375 Z M 8.671875 -2.359375 "/></g></g></g><g fill="#ea0909" fill-opacity="1"><g transform="translate(244.829842, 257.986157)"><g><path d="M 9.09375 -11.828125 C 7.539062 -11.828125 6.335938 -11.378906 5.484375 -10.484375 C 4.640625 -9.597656 4.21875 -8.347656 4.21875 -6.734375 L 4.21875 0 L 1.453125 0 L 1.453125 -6.890625 C 1.453125 -7.992188 1.625 -9.003906 1.96875 -9.921875 C 2.3125 -10.847656 2.8125 -11.648438 3.46875 -12.328125 C 4.125 -13.003906 4.921875 -13.53125 5.859375 -13.90625 C 6.804688 -14.28125 7.882812 -14.46875 9.09375 -14.46875 C 10.289062 -14.46875 11.363281 -14.28125 12.3125 -13.90625 C 13.257812 -13.53125 14.054688 -13.003906 14.703125 -12.328125 C 15.347656 -11.648438 15.84375 -10.847656 16.1875 -9.921875 C 16.53125 -9.003906 16.703125 -7.992188 16.703125 -6.890625 L 16.703125 0 L 13.921875 0 L 13.921875 -6.734375 C 13.921875 -8.347656 13.5 -9.597656 12.65625 -10.484375 C 11.820312 -11.378906 10.632812 -11.828125 9.09375 -11.828125 Z M 9.09375 -11.828125 "/></g></g></g><g fill="#ea0909" fill-opacity="1"><g transform="translate(262.977648, 257.986157)"><g><path d="M 0.8125 -7.09375 C 0.8125 -8.1875 1.007812 -9.179688 1.40625 -10.078125 C 1.800781 -10.984375 2.351562 -11.765625 3.0625 -12.421875 C 3.769531 -13.078125 4.609375 -13.582031 5.578125 -13.9375 C 6.546875 -14.289062 7.597656 -14.46875 8.734375 -14.46875 C 9.867188 -14.46875 10.921875 -14.289062 11.890625 -13.9375 C 12.859375 -13.582031 13.695312 -13.078125 14.40625 -12.421875 C 15.113281 -11.765625 15.664062 -10.984375 16.0625 -10.078125 C 16.46875 -9.179688 16.671875 -8.1875 16.671875 -7.09375 C 16.671875 -6 16.46875 -5 16.0625 -4.09375 C 15.664062 -3.1875 15.113281 -2.40625 14.40625 -1.75 C 13.695312 -1.101562 12.859375 -0.597656 11.890625 -0.234375 C 10.921875 0.117188 9.867188 0.296875 8.734375 0.296875 C 7.597656 0.296875 6.546875 0.117188 5.578125 -0.234375 C 4.609375 -0.597656 3.769531 -1.101562 3.0625 -1.75 C 2.351562 -2.40625 1.800781 -3.1875 1.40625 -4.09375 C 1.007812 -5 0.8125 -6 0.8125 -7.09375 Z M 13.828125 -7.09375 C 13.828125 -7.84375 13.691406 -8.515625 13.421875 -9.109375 C 13.148438 -9.703125 12.789062 -10.195312 12.34375 -10.59375 C 11.894531 -10.988281 11.359375 -11.289062 10.734375 -11.5 C 10.109375 -11.71875 9.441406 -11.828125 8.734375 -11.828125 C 8.023438 -11.828125 7.363281 -11.71875 6.75 -11.5 C 6.132812 -11.289062 5.597656 -10.988281 5.140625 -10.59375 C 4.679688 -10.195312 4.316406 -9.703125 4.046875 -9.109375 C 3.773438 -8.515625 3.640625 -7.84375 3.640625 -7.09375 C 3.640625 -6.34375 3.773438 -5.671875 4.046875 -5.078125 C 4.316406 -4.484375 4.679688 -3.984375 5.140625 -3.578125 C 5.597656 -3.171875 6.132812 -2.863281 6.75 -2.65625 C 7.363281 -2.457031 8.023438 -2.359375 8.734375 -2.359375 C 9.441406 -2.359375 10.109375 -2.457031 10.734375 -2.65625 C 11.359375 -2.863281 11.894531 -3.171875 12.34375 -3.578125 C 12.789062 -3.984375 13.148438 -4.484375 13.421875 -5.078125 C 13.691406 -5.671875 13.828125 -6.34375 13.828125 -7.09375 Z M 13.828125 -7.09375 "/></g></g></g><g fill="#ea0909" fill-opacity="1"><g transform="translate(280.448536, 257.986157)"><g><path d="M 9.859375 -0.265625 C 9.367188 -0.0859375 8.890625 0.0351562 8.421875 0.109375 C 7.960938 0.179688 7.539062 0.21875 7.15625 0.21875 C 6.0625 0.21875 5.140625 0.0664062 4.390625 -0.234375 C 3.648438 -0.546875 3.054688 -0.988281 2.609375 -1.5625 C 2.160156 -2.132812 1.84375 -2.816406 1.65625 -3.609375 C 1.476562 -4.398438 1.390625 -5.289062 1.390625 -6.28125 L 1.390625 -18.765625 L 4.15625 -18.765625 L 4.15625 -6.34375 C 4.15625 -5.082031 4.378906 -4.109375 4.828125 -3.421875 C 5.285156 -2.734375 6.03125 -2.390625 7.0625 -2.390625 C 7.363281 -2.390625 7.675781 -2.410156 8 -2.453125 C 8.320312 -2.492188 8.664062 -2.578125 9.03125 -2.703125 Z M 9.859375 -0.265625 "/></g></g></g><g fill="#ea0909" fill-opacity="1"><g transform="translate(290.312172, 257.986157)"><g><path d="M 0.8125 -7.09375 C 0.8125 -8.1875 1.007812 -9.179688 1.40625 -10.078125 C 1.800781 -10.984375 2.351562 -11.765625 3.0625 -12.421875 C 3.769531 -13.078125 4.609375 -13.582031 5.578125 -13.9375 C 6.546875 -14.289062 7.597656 -14.46875 8.734375 -14.46875 C 9.867188 -14.46875 10.921875 -14.289062 11.890625 -13.9375 C 12.859375 -13.582031 13.695312 -13.078125 14.40625 -12.421875 C 15.113281 -11.765625 15.664062 -10.984375 16.0625 -10.078125 C 16.46875 -9.179688 16.671875 -8.1875 16.671875 -7.09375 C 16.671875 -6 16.46875 -5 16.0625 -4.09375 C 15.664062 -3.1875 15.113281 -2.40625 14.40625 -1.75 C 13.695312 -1.101562 12.859375 -0.597656 11.890625 -0.234375 C 10.921875 0.117188 9.867188 0.296875 8.734375 0.296875 C 7.597656 0.296875 6.546875 0.117188 5.578125 -0.234375 C 4.609375 -0.597656 3.769531 -1.101562 3.0625 -1.75 C 2.351562 -2.40625 1.800781 -3.1875 1.40625 -4.09375 C 1.007812 -5 0.8125 -6 0.8125 -7.09375 Z M 13.828125 -7.09375 C 13.828125 -7.84375 13.691406 -8.515625 13.421875 -9.109375 C 13.148438 -9.703125 12.789062 -10.195312 12.34375 -10.59375 C 11.894531 -10.988281 11.359375 -11.289062 10.734375 -11.5 C 10.109375 -11.71875 9.441406 -11.828125 8.734375 -11.828125 C 8.023438 -11.828125 7.363281 -11.71875 6.75 -11.5 C 6.132812 -11.289062 5.597656 -10.988281 5.140625 -10.59375 C 4.679688 -10.195312 4.316406 -9.703125 4.046875 -9.109375 C 3.773438 -8.515625 3.640625 -7.84375 3.640625 -7.09375 C 3.640625 -6.34375 3.773438 -5.671875 4.046875 -5.078125 C 4.316406 -4.484375 4.679688 -3.984375 5.140625 -3.578125 C 5.597656 -3.171875 6.132812 -2.863281 6.75 -2.65625 C 7.363281 -2.457031 8.023438 -2.359375 8.734375 -2.359375 C 9.441406 -2.359375 10.109375 -2.457031 10.734375 -2.65625 C 11.359375 -2.863281 11.894531 -3.171875 12.34375 -3.578125 C 12.789062 -3.984375 13.148438 -4.484375 13.421875 -5.078125 C 13.691406 -5.671875 13.828125 -6.34375 13.828125 -7.09375 Z M 13.828125 -7.09375 "/></g></g></g><g fill="#ea0909" fill-opacity="1"><g transform="translate(307.783061, 257.986157)"><g><path d="M 3.640625 -7.15625 C 3.640625 -6.40625 3.773438 -5.738281 4.046875 -5.15625 C 4.316406 -4.570312 4.679688 -4.082031 5.140625 -3.6875 C 5.597656 -3.289062 6.132812 -2.988281 6.75 -2.78125 C 7.363281 -2.582031 8.023438 -2.484375 8.734375 -2.484375 C 9.441406 -2.484375 10.097656 -2.570312 10.703125 -2.75 C 11.304688 -2.9375 11.832031 -3.21875 12.28125 -3.59375 C 12.726562 -3.96875 13.082031 -4.445312 13.34375 -5.03125 C 13.601562 -5.613281 13.734375 -6.300781 13.734375 -7.09375 C 13.734375 -7.800781 13.601562 -8.441406 13.34375 -9.015625 C 13.082031 -9.597656 12.726562 -10.097656 12.28125 -10.515625 C 11.832031 -10.941406 11.304688 -11.265625 10.703125 -11.484375 C 10.097656 -11.710938 9.441406 -11.828125 8.734375 -11.828125 C 8.023438 -11.828125 7.363281 -11.722656 6.75 -11.515625 C 6.132812 -11.316406 5.597656 -11.015625 5.140625 -10.609375 C 4.679688 -10.203125 4.316406 -9.707031 4.046875 -9.125 C 3.773438 -8.539062 3.640625 -7.882812 3.640625 -7.15625 Z M 8.640625 2.484375 C 9.328125 2.484375 9.960938 2.398438 10.546875 2.234375 C 11.140625 2.078125 11.660156 1.816406 12.109375 1.453125 C 12.566406 1.085938 12.9375 0.617188 13.21875 0.046875 C 13.5 -0.523438 13.671875 -1.226562 13.734375 -2.0625 C 13.171875 -1.375 12.4375 -0.851562 11.53125 -0.5 C 10.632812 -0.144531 9.671875 0.03125 8.640625 0.03125 C 7.429688 0.03125 6.34375 -0.132812 5.375 -0.46875 C 4.414062 -0.800781 3.597656 -1.285156 2.921875 -1.921875 C 2.242188 -2.554688 1.722656 -3.3125 1.359375 -4.1875 C 0.992188 -5.070312 0.8125 -6.0625 0.8125 -7.15625 C 0.8125 -8.269531 1.007812 -9.285156 1.40625 -10.203125 C 1.800781 -11.117188 2.351562 -11.882812 3.0625 -12.5 C 3.769531 -13.125 4.609375 -13.609375 5.578125 -13.953125 C 6.546875 -14.296875 7.597656 -14.46875 8.734375 -14.46875 C 9.847656 -14.46875 10.882812 -14.296875 11.84375 -13.953125 C 12.800781 -13.609375 13.628906 -13.101562 14.328125 -12.4375 C 15.023438 -11.769531 15.570312 -10.929688 15.96875 -9.921875 C 16.363281 -8.910156 16.5625 -7.753906 16.5625 -6.453125 L 16.5625 -3.1875 C 16.5625 -1.945312 16.394531 -0.820312 16.0625 0.1875 C 15.726562 1.195312 15.226562 2.0625 14.5625 2.78125 C 13.90625 3.507812 13.082031 4.070312 12.09375 4.46875 C 11.101562 4.863281 9.953125 5.0625 8.640625 5.0625 C 7.992188 5.0625 7.332031 5.003906 6.65625 4.890625 C 5.976562 4.785156 5.316406 4.59375 4.671875 4.3125 C 4.023438 4.039062 3.410156 3.660156 2.828125 3.171875 C 2.253906 2.691406 1.742188 2.078125 1.296875 1.328125 L 3.671875 0.125 C 4.359375 1.03125 5.085938 1.648438 5.859375 1.984375 C 6.640625 2.316406 7.566406 2.484375 8.640625 2.484375 Z M 8.640625 2.484375 "/></g></g></g><g fill="#ea0909" fill-opacity="1"><g transform="translate(325.801933, 257.986157)"><g><path d="M 4.390625 -14.1875 L 4.390625 0 L 1.609375 0 L 1.609375 -14.1875 Z M 4.390625 -19.078125 L 4.390625 -16.21875 L 1.609375 -16.21875 L 1.609375 -19.078125 Z M 4.390625 -19.078125 "/></g></g></g><g fill="#ea0909" fill-opacity="1"><g transform="translate(331.797484, 257.986157)"><g><path d="M 13.796875 -1.8125 C 13.234375 -1.1875 12.488281 -0.675781 11.5625 -0.28125 C 10.644531 0.101562 9.648438 0.296875 8.578125 0.296875 C 7.410156 0.296875 6.351562 0.117188 5.40625 -0.234375 C 4.46875 -0.597656 3.65625 -1.101562 2.96875 -1.75 C 2.28125 -2.40625 1.75 -3.1875 1.375 -4.09375 C 1 -5 0.8125 -6 0.8125 -7.09375 C 0.8125 -8.226562 1.007812 -9.253906 1.40625 -10.171875 C 1.800781 -11.085938 2.351562 -11.859375 3.0625 -12.484375 C 3.769531 -13.117188 4.601562 -13.609375 5.5625 -13.953125 C 6.519531 -14.296875 7.554688 -14.46875 8.671875 -14.46875 C 9.785156 -14.46875 10.828125 -14.296875 11.796875 -13.953125 C 12.765625 -13.609375 13.601562 -13.101562 14.3125 -12.4375 C 15.019531 -11.769531 15.570312 -10.9375 15.96875 -9.9375 C 16.363281 -8.945312 16.5625 -7.796875 16.5625 -6.484375 L 16.5625 0 L 13.796875 0 Z M 3.640625 -7.09375 C 3.640625 -6.34375 3.769531 -5.671875 4.03125 -5.078125 C 4.289062 -4.484375 4.644531 -3.984375 5.09375 -3.578125 C 5.539062 -3.171875 6.070312 -2.863281 6.6875 -2.65625 C 7.300781 -2.457031 7.960938 -2.359375 8.671875 -2.359375 C 9.378906 -2.359375 10.039062 -2.453125 10.65625 -2.640625 C 11.269531 -2.835938 11.800781 -3.132812 12.25 -3.53125 C 12.695312 -3.925781 13.054688 -4.421875 13.328125 -5.015625 C 13.597656 -5.609375 13.734375 -6.300781 13.734375 -7.09375 C 13.734375 -7.800781 13.597656 -8.441406 13.328125 -9.015625 C 13.054688 -9.597656 12.695312 -10.097656 12.25 -10.515625 C 11.800781 -10.941406 11.269531 -11.265625 10.65625 -11.484375 C 10.039062 -11.710938 9.378906 -11.828125 8.671875 -11.828125 C 7.960938 -11.828125 7.300781 -11.71875 6.6875 -11.5 C 6.070312 -11.289062 5.539062 -10.988281 5.09375 -10.59375 C 4.644531 -10.195312 4.289062 -9.703125 4.03125 -9.109375 C 3.769531 -8.515625 3.640625 -7.84375 3.640625 -7.09375 Z M 3.640625 -7.09375 "/></g></g></g></svg>